# This file uses centimeters as units for non-parametric coordinates.

mtllib mesh_pearls.mtl
g default
v -1.421167 -0.832397 1.923352
v -2.720859 -1.186446 2.152990
v -1.245422 -0.610464 3.260192
v -2.545113 -0.964513 3.489831
v -1.804832 0.468633 1.757802
v -3.104523 0.114583 1.987441
v -1.629086 0.690565 3.094643
v -2.928778 0.336516 3.324281
v -3.205813 0.331965 2.663062
v -3.078490 -0.600656 1.945796
v -2.047649 -1.180560 1.906551
v -2.302296 0.684680 3.341083
v -1.832406 -0.908750 3.543839
v -2.517539 0.412869 1.703795
v -1.271456 0.104775 3.301837
v -1.144132 -0.827845 2.584570
v -2.863246 -0.328845 3.583085
v -1.614022 0.765584 2.381815
v -1.486699 -0.167035 1.664548
v -2.735923 -1.261465 2.865819
v -1.049406 0.058675 2.424944
v -2.022773 -0.055741 3.781554
v -2.507235 0.878784 2.480446
v -3.300539 -0.554556 2.822689
v -1.842709 -1.374665 2.767187
v -2.327172 -0.440139 1.466078
vt 0.861485 0.796609
vt 0.862535 0.798232
vt 0.860370 0.798842
vt 0.859547 0.796731
vt 0.075944 0.875792
vt 0.077966 0.875480
vt 0.078933 0.876132
vt 0.076586 0.877003
vt 0.860981 0.801072
vt 0.858948 0.801247
vt 0.857993 0.799571
vt 0.857777 0.797702
vt 0.068701 0.872804
vt 0.069115 0.874687
vt 0.066538 0.874865
vt 0.066679 0.872492
vt 0.068948 0.876492
vt 0.066981 0.877010
vt 0.445552 0.796412
vt 0.443296 0.795274
vt 0.443730 0.794366
vt 0.445605 0.794837
vt 0.448049 0.795762
vt 0.447611 0.794765
vt 0.445867 0.792396
vt 0.448272 0.792922
vt 0.443518 0.792434
vt 0.444204 0.790842
vt 0.446185 0.790520
vt 0.448085 0.791241
vt 0.869471 0.800132
vt 0.869687 0.798263
vt 0.872064 0.798992
vt 0.871240 0.801104
vt 0.870642 0.796587
vt 0.872675 0.796762
vt 0.067321 0.871281
vt 0.069668 0.872152
vt 0.874229 0.799602
vt 0.873179 0.801226
vt 0.432618 0.792566
vt 0.434493 0.792096
vt 0.434756 0.794536
vt 0.432407 0.794498
vt 0.436500 0.792168
vt 0.437160 0.794010
vt 0.436973 0.795692
vt 0.435074 0.796412
vt 0.433092 0.796090
vt 0.078213 0.871792
vt 0.078380 0.873598
vt 0.075803 0.873419
vt 0.076246 0.871275
vt 0.434441 0.790520
vt 0.436938 0.791170
vt 0.432184 0.791658
vn 0.636976 -0.493874 -0.591903
vn 0.581601 0.068365 -0.810596
vn 0.951120 0.259095 -0.168050
vn 0.871076 -0.490028 -0.033163
vn 0.581601 0.068365 -0.810596
vn 0.312775 0.605515 -0.731795
vn 0.474011 0.856443 -0.204496
vn 0.951120 0.259095 -0.168050
vn 0.951120 0.259095 -0.168050
vn 0.474011 0.856443 -0.204496
vn 0.461282 0.793051 0.397855
vn 0.763485 0.298050 0.572937
vn 0.871076 -0.490028 -0.033163
vn 0.951120 0.259095 -0.168050
vn 0.763485 0.298050 0.572937
vn 0.785484 -0.306338 0.537747
vn -0.312775 -0.605515 0.731795
vn 0.289474 -0.558394 0.777433
vn 0.128611 0.162411 0.978306
vn -0.581601 -0.068366 0.810596
vn 0.289474 -0.558394 0.777433
vn 0.785484 -0.306338 0.537747
vn 0.763485 0.298050 0.572937
vn 0.128611 0.162411 0.978306
vn 0.128611 0.162411 0.978306
vn 0.763485 0.298050 0.572937
vn 0.461282 0.793051 0.397855
vn -0.107590 0.788078 0.606100
vn -0.581601 -0.068366 0.810596
vn 0.128611 0.162411 0.978306
vn -0.107590 0.788078 0.606100
vn -0.636976 0.493874 0.591903
vn -0.636976 0.493874 0.591903
vn -0.107590 0.788078 0.606100
vn -0.280767 0.952099 -0.121150
vn -0.871076 0.490028 0.033163
vn -0.107590 0.788078 0.606100
vn 0.461282 0.793051 0.397855
vn 0.474011 0.856443 -0.204496
vn -0.280767 0.952099 -0.121150
vn -0.280767 0.952099 -0.121150
vn 0.474011 0.856443 -0.204496
vn 0.312775 0.605515 -0.731795
vn -0.289474 0.558394 -0.777433
vn -0.871076 0.490028 0.033163
vn -0.280767 0.952099 -0.121150
vn -0.289474 0.558394 -0.777433
vn -0.785484 0.306338 -0.537747
vn -0.785484 0.306338 -0.537747
vn -0.763485 -0.298050 -0.572937
vn -0.951120 -0.259095 0.168050
vn -0.871076 0.490028 0.033163
vn -0.763485 -0.298050 -0.572937
vn -0.461282 -0.793051 -0.397855
vn -0.474011 -0.856443 0.204496
vn -0.951120 -0.259095 0.168050
vn -0.951120 -0.259095 0.168050
vn -0.474011 -0.856443 0.204496
vn -0.312775 -0.605515 0.731795
vn -0.581601 -0.068366 0.810596
vn -0.871076 0.490028 0.033163
vn -0.951120 -0.259095 0.168050
vn -0.581601 -0.068366 0.810596
vn -0.636976 0.493874 0.591903
vn -0.461282 -0.793051 -0.397855
vn 0.107590 -0.788078 -0.606100
vn 0.280767 -0.952099 0.121150
vn -0.474011 -0.856443 0.204496
vn 0.107590 -0.788078 -0.606100
vn 0.636976 -0.493874 -0.591903
vn 0.871076 -0.490028 -0.033163
vn 0.280767 -0.952099 0.121150
vn 0.280767 -0.952099 0.121150
vn 0.871076 -0.490028 -0.033163
vn 0.785484 -0.306338 0.537747
vn 0.289474 -0.558394 0.777433
vn -0.474011 -0.856443 0.204496
vn 0.280767 -0.952099 0.121150
vn 0.289474 -0.558394 0.777433
vn -0.312775 -0.605515 0.731795
vn -0.785484 0.306338 -0.537747
vn -0.289474 0.558394 -0.777433
vn -0.128611 -0.162411 -0.978305
vn -0.763485 -0.298050 -0.572937
vn -0.289474 0.558394 -0.777433
vn 0.312775 0.605515 -0.731795
vn 0.581601 0.068365 -0.810596
vn -0.128611 -0.162411 -0.978305
vn -0.128611 -0.162411 -0.978305
vn 0.581601 0.068365 -0.810596
vn 0.636976 -0.493874 -0.591903
vn 0.107590 -0.788078 -0.606100
vn -0.763485 -0.298050 -0.572937
vn -0.128611 -0.162411 -0.978305
vn 0.107590 -0.788078 -0.606100
vn -0.461282 -0.793051 -0.397855
s off
g polySurface165 pearl group3
usemtl CylinderFBXASC046036SG
f 1/1/1 19/2/2 21/3/3 16/4/4
f 19/5/5 5/6/6 18/7/7 21/8/8
f 21/3/9 18/9/10 7/10/11 15/11/12
f 16/4/13 21/3/14 15/11/15 3/12/16
f 4/13/17 13/14/18 22/15/19 17/16/20
f 13/14/21 3/17/22 15/18/23 22/15/24
f 22/19/25 15/20/26 7/21/27 12/22/28
f 17/23/29 22/19/30 12/22/31 8/24/32
f 8/24/33 12/22/34 23/25/35 9/26/36
f 12/22/37 7/21/38 18/27/39 23/25/40
f 23/25/41 18/27/42 5/28/43 14/29/44
f 9/26/45 23/25/46 14/29/47 6/30/48
f 6/31/49 10/32/50 24/33/51 9/34/52
f 10/32/53 2/35/54 20/36/55 24/33/56
f 24/37/57 20/38/58 4/13/59 17/16/60
f 9/34/61 24/33/62 17/39/63 8/40/64
f 2/41/65 11/42/66 25/43/67 20/44/68
f 11/42/69 1/45/70 16/46/71 25/43/72
f 25/43/73 16/46/74 3/47/75 13/48/76
f 20/44/77 25/43/78 13/48/79 4/49/80
f 6/50/81 14/51/82 26/52/83 10/53/84
f 14/51/85 5/6/86 19/5/87 26/52/88
f 26/54/89 19/55/90 1/45/91 11/42/92
f 10/56/93 26/54/94 11/42/95 2/41/96
g default
v -3.556085 -1.617669 2.081345
v -4.428410 -1.855299 2.235473
v -3.438128 -1.468713 2.978603
v -4.310454 -1.706343 3.132731
v -3.813592 -0.744447 1.970231
v -4.685917 -0.982077 2.124359
v -3.695635 -0.595490 2.867489
v -4.567960 -0.833121 3.021617
v -4.753900 -0.836175 2.577822
v -4.668443 -1.462130 2.096408
v -3.976566 -1.851349 2.070067
v -4.147480 -0.599441 3.032895
v -3.832099 -1.668916 3.168980
v -4.291946 -0.781874 1.933982
v -3.455602 -0.988660 3.006554
v -3.370145 -1.614614 2.525140
v -4.523977 -1.279696 3.195321
v -3.685525 -0.545139 2.389054
v -3.600068 -1.171094 1.907642
v -4.438520 -1.905651 2.713908
v -3.306567 -1.019601 2.418002
v -3.959870 -1.096395 3.328529
v -4.285030 -0.469162 2.455254
v -4.817478 -1.431189 2.684960
v -3.839016 -1.981628 2.647708
v -4.164176 -1.354395 1.774433
vt 0.446405 0.858153
vt 0.447109 0.859243
vt 0.445657 0.859652
vt 0.445104 0.858235
vt 0.368830 0.926497
vt 0.370187 0.926288
vt 0.370836 0.926726
vt 0.369261 0.927310
vt 0.446067 0.861149
vt 0.444702 0.861266
vt 0.444061 0.860141
vt 0.443916 0.858887
vt 0.361952 0.924487
vt 0.362229 0.925751
vt 0.360500 0.925871
vt 0.360594 0.924278
vt 0.362117 0.926963
vt 0.360797 0.927310
vt 0.626930 0.847281
vt 0.625415 0.846518
vt 0.625707 0.845908
vt 0.626965 0.846224
vt 0.628606 0.846845
vt 0.628312 0.846176
vt 0.627141 0.844586
vt 0.628755 0.844939
vt 0.625565 0.844612
vt 0.626025 0.843543
vt 0.627355 0.843327
vt 0.628630 0.843811
vt 0.434587 0.860528
vt 0.434732 0.859273
vt 0.436328 0.859762
vt 0.435775 0.861179
vt 0.435373 0.858148
vt 0.436738 0.858265
vt 0.361025 0.923466
vt 0.362600 0.924050
vt 0.437781 0.860172
vt 0.437076 0.861261
vt 0.616232 0.844625
vt 0.617490 0.844309
vt 0.617666 0.845947
vt 0.616090 0.845921
vt 0.618837 0.844357
vt 0.619280 0.845594
vt 0.619155 0.846722
vt 0.617880 0.847206
vt 0.616550 0.846990
vt 0.370353 0.923813
vt 0.370465 0.925025
vt 0.368736 0.924905
vt 0.369033 0.923466
vt 0.617455 0.843252
vt 0.619131 0.843688
vt 0.615940 0.844015
vn 0.636976 -0.493874 -0.591903
vn 0.581601 0.068366 -0.810596
vn 0.951120 0.259095 -0.168050
vn 0.871076 -0.490028 -0.033164
vn 0.581601 0.068366 -0.810596
vn 0.312775 0.605515 -0.731795
vn 0.474011 0.856443 -0.204496
vn 0.951120 0.259095 -0.168050
vn 0.951120 0.259095 -0.168050
vn 0.474011 0.856443 -0.204496
vn 0.461282 0.793051 0.397855
vn 0.763485 0.298050 0.572937
vn 0.871076 -0.490028 -0.033164
vn 0.951120 0.259095 -0.168050
vn 0.763485 0.298050 0.572937
vn 0.785484 -0.306338 0.537747
vn -0.312775 -0.605515 0.731795
vn 0.289474 -0.558394 0.777433
vn 0.128611 0.162411 0.978306
vn -0.581601 -0.068366 0.810596
vn 0.289474 -0.558394 0.777433
vn 0.785484 -0.306338 0.537747
vn 0.763485 0.298050 0.572937
vn 0.128611 0.162411 0.978306
vn 0.128611 0.162411 0.978306
vn 0.763485 0.298050 0.572937
vn 0.461282 0.793051 0.397855
vn -0.107590 0.788078 0.606100
vn -0.581601 -0.068366 0.810596
vn 0.128611 0.162411 0.978306
vn -0.107590 0.788078 0.606100
vn -0.636976 0.493874 0.591903
vn -0.636976 0.493874 0.591903
vn -0.107590 0.788078 0.606100
vn -0.280767 0.952099 -0.121150
vn -0.871076 0.490028 0.033163
vn -0.107590 0.788078 0.606100
vn 0.461282 0.793051 0.397855
vn 0.474011 0.856443 -0.204496
vn -0.280767 0.952099 -0.121150
vn -0.280767 0.952099 -0.121150
vn 0.474011 0.856443 -0.204496
vn 0.312775 0.605515 -0.731795
vn -0.289474 0.558394 -0.777433
vn -0.871076 0.490028 0.033163
vn -0.280767 0.952099 -0.121150
vn -0.289474 0.558394 -0.777433
vn -0.785484 0.306338 -0.537747
vn -0.785484 0.306338 -0.537747
vn -0.763485 -0.298050 -0.572937
vn -0.951120 -0.259095 0.168050
vn -0.871076 0.490028 0.033163
vn -0.763485 -0.298050 -0.572937
vn -0.461282 -0.793051 -0.397855
vn -0.474011 -0.856443 0.204496
vn -0.951120 -0.259095 0.168050
vn -0.951120 -0.259095 0.168050
vn -0.474011 -0.856443 0.204496
vn -0.312775 -0.605515 0.731795
vn -0.581601 -0.068366 0.810596
vn -0.871076 0.490028 0.033163
vn -0.951120 -0.259095 0.168050
vn -0.581601 -0.068366 0.810596
vn -0.636976 0.493874 0.591903
vn -0.461282 -0.793051 -0.397855
vn 0.107590 -0.788078 -0.606100
vn 0.280767 -0.952099 0.121150
vn -0.474011 -0.856443 0.204496
vn 0.107590 -0.788078 -0.606100
vn 0.636976 -0.493874 -0.591903
vn 0.871076 -0.490028 -0.033164
vn 0.280767 -0.952099 0.121150
vn 0.280767 -0.952099 0.121150
vn 0.871076 -0.490028 -0.033164
vn 0.785484 -0.306338 0.537747
vn 0.289474 -0.558394 0.777433
vn -0.474011 -0.856443 0.204496
vn 0.280767 -0.952099 0.121150
vn 0.289474 -0.558394 0.777433
vn -0.312775 -0.605515 0.731795
vn -0.785484 0.306338 -0.537747
vn -0.289474 0.558394 -0.777433
vn -0.128611 -0.162411 -0.978306
vn -0.763485 -0.298050 -0.572937
vn -0.289474 0.558394 -0.777433
vn 0.312775 0.605515 -0.731795
vn 0.581601 0.068366 -0.810596
vn -0.128611 -0.162411 -0.978306
vn -0.128611 -0.162411 -0.978306
vn 0.581601 0.068366 -0.810596
vn 0.636976 -0.493874 -0.591903
vn 0.107590 -0.788078 -0.606100
vn -0.763485 -0.298050 -0.572937
vn -0.128611 -0.162411 -0.978306
vn 0.107590 -0.788078 -0.606100
vn -0.461282 -0.793051 -0.397855
s off
g pearl group3 polySurface166
usemtl CylinderFBXASC046036SG
f 27/57/97 45/58/98 47/59/99 42/60/100
f 45/61/101 31/62/102 44/63/103 47/64/104
f 47/59/105 44/65/106 33/66/107 41/67/108
f 42/60/109 47/59/110 41/67/111 29/68/112
f 30/69/113 39/70/114 48/71/115 43/72/116
f 39/70/117 29/73/118 41/74/119 48/71/120
f 48/75/121 41/76/122 33/77/123 38/78/124
f 43/79/125 48/75/126 38/78/127 34/80/128
f 34/80/129 38/78/130 49/81/131 35/82/132
f 38/78/133 33/77/134 44/83/135 49/81/136
f 49/81/137 44/83/138 31/84/139 40/85/140
f 35/82/141 49/81/142 40/85/143 32/86/144
f 32/87/145 36/88/146 50/89/147 35/90/148
f 36/88/149 28/91/150 46/92/151 50/89/152
f 50/93/153 46/94/154 30/69/155 43/72/156
f 35/90/157 50/89/158 43/95/159 34/96/160
f 28/97/161 37/98/162 51/99/163 46/100/164
f 37/98/165 27/101/166 42/102/167 51/99/168
f 51/99/169 42/102/170 29/103/171 39/104/172
f 46/100/173 51/99/174 39/104/175 30/105/176
f 32/106/177 40/107/178 52/108/179 36/109/180
f 40/107/181 31/62/182 45/61/183 52/108/184
f 52/110/185 45/111/186 27/101/187 37/98/188
f 36/112/189 52/110/190 37/98/191 28/97/192
g default
v -2.566116 -1.492672 0.832683
v -3.297037 -1.691782 0.961828
v -2.467280 -1.367861 1.584496
v -3.198201 -1.566972 1.713640
v -2.781881 -0.760999 0.739581
v -3.512802 -0.960109 0.868725
v -2.683045 -0.636188 1.491394
v -3.413966 -0.835299 1.620538
v -3.569765 -0.837858 1.248682
v -3.498161 -1.362345 0.845306
v -2.918437 -1.688472 0.823234
v -3.061645 -0.639498 1.629987
v -2.797388 -1.535611 1.744013
v -3.182695 -0.792359 0.709208
v -2.481921 -0.965625 1.607916
v -2.410317 -1.490113 1.204539
v -3.377113 -1.209484 1.766085
v -2.674574 -0.593999 1.090514
v -2.602969 -1.118486 0.687137
v -3.305508 -1.733971 1.362708
v -2.357045 -0.991551 1.114769
v -2.904447 -1.055896 1.877699
v -3.176899 -0.530338 1.145982
v -3.623037 -1.336420 1.338453
v -2.803183 -1.797633 1.307239
v -3.075635 -1.272074 0.575522
vt 0.091235 0.952585
vt 0.091825 0.953498
vt 0.090607 0.953841
vt 0.090144 0.952654
vt 0.912612 0.811327
vt 0.913750 0.811152
vt 0.914293 0.811518
vt 0.912974 0.812008
vt 0.090951 0.955096
vt 0.089808 0.955194
vt 0.089270 0.954251
vt 0.089149 0.953200
vt 0.905854 0.809634
vt 0.906087 0.810693
vt 0.904638 0.810794
vt 0.904717 0.809459
vt 0.905993 0.811709
vt 0.904887 0.812000
vt 0.827863 0.832504
vt 0.826594 0.831864
vt 0.826838 0.831353
vt 0.827892 0.831618
vt 0.829267 0.832138
vt 0.829021 0.831578
vt 0.828040 0.830245
vt 0.829392 0.830541
vt 0.826719 0.830267
vt 0.827104 0.829372
vt 0.828219 0.829191
vt 0.829287 0.829596
vt 0.080338 0.954576
vt 0.080459 0.953525
vt 0.081796 0.953935
vt 0.081333 0.955123
vt 0.080997 0.952583
vt 0.082140 0.952681
vt 0.905078 0.808778
vt 0.906398 0.809268
vt 0.083014 0.954278
vt 0.082423 0.955191
vt 0.836583 0.830334
vt 0.837637 0.830069
vt 0.837785 0.831442
vt 0.836464 0.831420
vt 0.838765 0.830110
vt 0.839137 0.831146
vt 0.839032 0.832092
vt 0.837963 0.832497
vt 0.836849 0.832316
vt 0.913888 0.809078
vt 0.913982 0.810093
vt 0.912533 0.809993
vt 0.912782 0.808787
vt 0.837608 0.829183
vt 0.839012 0.829549
vt 0.836339 0.829823
vn 0.636976 -0.493874 -0.591903
vn 0.581601 0.068365 -0.810596
vn 0.951120 0.259095 -0.168050
vn 0.871076 -0.490028 -0.033164
vn 0.581601 0.068365 -0.810596
vn 0.312775 0.605515 -0.731795
vn 0.474011 0.856443 -0.204496
vn 0.951120 0.259095 -0.168050
vn 0.951120 0.259095 -0.168050
vn 0.474011 0.856443 -0.204496
vn 0.461282 0.793051 0.397855
vn 0.763485 0.298050 0.572937
vn 0.871076 -0.490028 -0.033164
vn 0.951120 0.259095 -0.168050
vn 0.763485 0.298050 0.572937
vn 0.785484 -0.306338 0.537747
vn -0.312775 -0.605515 0.731795
vn 0.289474 -0.558394 0.777432
vn 0.128611 0.162411 0.978306
vn -0.581601 -0.068366 0.810596
vn 0.289474 -0.558394 0.777432
vn 0.785484 -0.306338 0.537747
vn 0.763485 0.298050 0.572937
vn 0.128611 0.162411 0.978306
vn 0.128611 0.162411 0.978306
vn 0.763485 0.298050 0.572937
vn 0.461282 0.793051 0.397855
vn -0.107590 0.788078 0.606100
vn -0.581601 -0.068366 0.810596
vn 0.128611 0.162411 0.978306
vn -0.107590 0.788078 0.606100
vn -0.636976 0.493875 0.591903
vn -0.636976 0.493875 0.591903
vn -0.107590 0.788078 0.606100
vn -0.280767 0.952099 -0.121150
vn -0.871076 0.490028 0.033163
vn -0.107590 0.788078 0.606100
vn 0.461282 0.793051 0.397855
vn 0.474011 0.856443 -0.204496
vn -0.280767 0.952099 -0.121150
vn -0.280767 0.952099 -0.121150
vn 0.474011 0.856443 -0.204496
vn 0.312775 0.605515 -0.731795
vn -0.289474 0.558394 -0.777433
vn -0.871076 0.490028 0.033163
vn -0.280767 0.952099 -0.121150
vn -0.289474 0.558394 -0.777433
vn -0.785484 0.306338 -0.537747
vn -0.785484 0.306338 -0.537747
vn -0.763485 -0.298050 -0.572937
vn -0.951120 -0.259095 0.168050
vn -0.871076 0.490028 0.033163
vn -0.763485 -0.298050 -0.572937
vn -0.461282 -0.793051 -0.397855
vn -0.474011 -0.856443 0.204496
vn -0.951120 -0.259095 0.168050
vn -0.951120 -0.259095 0.168050
vn -0.474011 -0.856443 0.204496
vn -0.312775 -0.605515 0.731795
vn -0.581601 -0.068366 0.810596
vn -0.871076 0.490028 0.033163
vn -0.951120 -0.259095 0.168050
vn -0.581601 -0.068366 0.810596
vn -0.636976 0.493875 0.591903
vn -0.461282 -0.793051 -0.397855
vn 0.107590 -0.788078 -0.606100
vn 0.280767 -0.952099 0.121150
vn -0.474011 -0.856443 0.204496
vn 0.107590 -0.788078 -0.606100
vn 0.636976 -0.493874 -0.591903
vn 0.871076 -0.490028 -0.033164
vn 0.280767 -0.952099 0.121150
vn 0.280767 -0.952099 0.121150
vn 0.871076 -0.490028 -0.033164
vn 0.785484 -0.306338 0.537747
vn 0.289474 -0.558394 0.777432
vn -0.474011 -0.856443 0.204496
vn 0.280767 -0.952099 0.121150
vn 0.289474 -0.558394 0.777432
vn -0.312775 -0.605515 0.731795
vn -0.785484 0.306338 -0.537747
vn -0.289474 0.558394 -0.777433
vn -0.128611 -0.162411 -0.978306
vn -0.763485 -0.298050 -0.572937
vn -0.289474 0.558394 -0.777433
vn 0.312775 0.605515 -0.731795
vn 0.581601 0.068365 -0.810596
vn -0.128611 -0.162411 -0.978306
vn -0.128611 -0.162411 -0.978306
vn 0.581601 0.068365 -0.810596
vn 0.636976 -0.493874 -0.591903
vn 0.107590 -0.788078 -0.606100
vn -0.763485 -0.298050 -0.572937
vn -0.128611 -0.162411 -0.978306
vn 0.107590 -0.788078 -0.606100
vn -0.461282 -0.793051 -0.397855
s off
g pearl group3 polySurface167
usemtl CylinderFBXASC046036SG
f 53/113/193 71/114/194 73/115/195 68/116/196
f 71/117/197 57/118/198 70/119/199 73/120/200
f 73/115/201 70/121/202 59/122/203 67/123/204
f 68/116/205 73/115/206 67/123/207 55/124/208
f 56/125/209 65/126/210 74/127/211 69/128/212
f 65/126/213 55/129/214 67/130/215 74/127/216
f 74/131/217 67/132/218 59/133/219 64/134/220
f 69/135/221 74/131/222 64/134/223 60/136/224
f 60/136/225 64/134/226 75/137/227 61/138/228
f 64/134/229 59/133/230 70/139/231 75/137/232
f 75/137/233 70/139/234 57/140/235 66/141/236
f 61/138/237 75/137/238 66/141/239 58/142/240
f 58/143/241 62/144/242 76/145/243 61/146/244
f 62/144/245 54/147/246 72/148/247 76/145/248
f 76/149/249 72/150/250 56/125/251 69/128/252
f 61/146/253 76/145/254 69/151/255 60/152/256
f 54/153/257 63/154/258 77/155/259 72/156/260
f 63/154/261 53/157/262 68/158/263 77/155/264
f 77/155/265 68/158/266 55/159/267 65/160/268
f 72/156/269 77/155/270 65/160/271 56/161/272
f 58/162/273 66/163/274 78/164/275 62/165/276
f 66/163/277 57/118/278 71/117/279 78/164/280
f 78/166/281 71/167/282 53/157/283 63/154/284
f 62/168/285 78/166/286 63/154/287 54/153/288
g default
v -3.885246 -2.056721 0.780853
v -4.367391 -2.188063 0.866043
v -3.820049 -1.974391 1.276779
v -4.302195 -2.105732 1.361968
v -4.027573 -1.574080 0.719440
v -4.509718 -1.705421 0.804629
v -3.962376 -1.491750 1.215366
v -4.444522 -1.623091 1.300555
v -4.547294 -1.624779 1.055263
v -4.500061 -1.970752 0.789179
v -4.117651 -2.185879 0.774620
v -4.212117 -1.493933 1.306788
v -4.037802 -2.085046 1.382004
v -4.291966 -1.594766 0.699404
v -3.829707 -1.709060 1.292229
v -3.782474 -2.055033 1.026145
v -4.420212 -1.869919 1.396563
v -3.956789 -1.463920 0.950928
v -3.909556 -1.809893 0.684845
v -4.372979 -2.215892 1.130480
v -3.747334 -1.726161 0.966928
v -4.108423 -1.768606 1.470189
v -4.288143 -1.421926 0.987518
v -4.582434 -1.953651 1.114480
v -4.041625 -2.257886 1.093890
v -4.221345 -1.911206 0.611219
vt 0.272553 0.976869
vt 0.272943 0.977471
vt 0.272140 0.977697
vt 0.271834 0.976914
vt 0.189339 0.972906
vt 0.190089 0.972791
vt 0.190447 0.973032
vt 0.189577 0.973356
vt 0.272366 0.978525
vt 0.271612 0.978590
vt 0.271258 0.977968
vt 0.271178 0.977274
vt 0.197885 0.971795
vt 0.198038 0.972494
vt 0.197082 0.972560
vt 0.197134 0.971680
vt 0.197976 0.973164
vt 0.197246 0.973356
vt 0.133532 0.967502
vt 0.132695 0.967079
vt 0.132856 0.966743
vt 0.133552 0.966917
vt 0.134459 0.967260
vt 0.134296 0.966891
vt 0.133649 0.966012
vt 0.134541 0.966207
vt 0.132778 0.966026
vt 0.133032 0.965435
vt 0.133767 0.965316
vt 0.134472 0.965583
vt 0.263277 0.978188
vt 0.263357 0.977495
vt 0.264239 0.977765
vt 0.263934 0.978549
vt 0.263712 0.976873
vt 0.264466 0.976938
vt 0.197372 0.971231
vt 0.198243 0.971554
vt 0.265042 0.977992
vt 0.264653 0.978594
vt 0.124875 0.966090
vt 0.125571 0.965915
vt 0.125668 0.966821
vt 0.124796 0.966806
vt 0.126315 0.965942
vt 0.126560 0.966625
vt 0.126491 0.967249
vt 0.125786 0.967516
vt 0.125051 0.967397
vt 0.190180 0.971422
vt 0.190242 0.972092
vt 0.189286 0.972026
vt 0.189451 0.971231
vt 0.125551 0.965331
vt 0.126477 0.965572
vt 0.124714 0.965753
vn 0.636977 -0.493874 -0.591903
vn 0.581602 0.068366 -0.810596
vn 0.951120 0.259095 -0.168050
vn 0.871076 -0.490028 -0.033164
vn 0.581602 0.068366 -0.810596
vn 0.312775 0.605515 -0.731795
vn 0.474011 0.856443 -0.204496
vn 0.951120 0.259095 -0.168050
vn 0.951120 0.259095 -0.168050
vn 0.474011 0.856443 -0.204496
vn 0.461282 0.793051 0.397855
vn 0.763485 0.298050 0.572937
vn 0.871076 -0.490028 -0.033164
vn 0.951120 0.259095 -0.168050
vn 0.763485 0.298050 0.572937
vn 0.785484 -0.306338 0.537747
vn -0.312775 -0.605515 0.731795
vn 0.289474 -0.558394 0.777433
vn 0.128611 0.162411 0.978306
vn -0.581602 -0.068366 0.810596
vn 0.289474 -0.558394 0.777433
vn 0.785484 -0.306338 0.537747
vn 0.763485 0.298050 0.572937
vn 0.128611 0.162411 0.978306
vn 0.128611 0.162411 0.978306
vn 0.763485 0.298050 0.572937
vn 0.461282 0.793051 0.397855
vn -0.107590 0.788078 0.606100
vn -0.581602 -0.068366 0.810596
vn 0.128611 0.162411 0.978306
vn -0.107590 0.788078 0.606100
vn -0.636977 0.493874 0.591903
vn -0.636977 0.493874 0.591903
vn -0.107590 0.788078 0.606100
vn -0.280767 0.952099 -0.121150
vn -0.871076 0.490028 0.033164
vn -0.107590 0.788078 0.606100
vn 0.461282 0.793051 0.397855
vn 0.474011 0.856443 -0.204496
vn -0.280767 0.952099 -0.121150
vn -0.280767 0.952099 -0.121150
vn 0.474011 0.856443 -0.204496
vn 0.312775 0.605515 -0.731795
vn -0.289474 0.558394 -0.777432
vn -0.871076 0.490028 0.033164
vn -0.280767 0.952099 -0.121150
vn -0.289474 0.558394 -0.777432
vn -0.785484 0.306338 -0.537747
vn -0.785484 0.306338 -0.537747
vn -0.763485 -0.298050 -0.572937
vn -0.951120 -0.259095 0.168050
vn -0.871076 0.490028 0.033164
vn -0.763485 -0.298050 -0.572937
vn -0.461282 -0.793051 -0.397855
vn -0.474011 -0.856443 0.204496
vn -0.951120 -0.259095 0.168050
vn -0.951120 -0.259095 0.168050
vn -0.474011 -0.856443 0.204496
vn -0.312775 -0.605515 0.731795
vn -0.581602 -0.068366 0.810596
vn -0.871076 0.490028 0.033164
vn -0.951120 -0.259095 0.168050
vn -0.581602 -0.068366 0.810596
vn -0.636977 0.493874 0.591903
vn -0.461282 -0.793051 -0.397855
vn 0.107590 -0.788078 -0.606100
vn 0.280767 -0.952099 0.121150
vn -0.474011 -0.856443 0.204496
vn 0.107590 -0.788078 -0.606100
vn 0.636977 -0.493874 -0.591903
vn 0.871076 -0.490028 -0.033164
vn 0.280767 -0.952099 0.121150
vn 0.280767 -0.952099 0.121150
vn 0.871076 -0.490028 -0.033164
vn 0.785484 -0.306338 0.537747
vn 0.289474 -0.558394 0.777433
vn -0.474011 -0.856443 0.204496
vn 0.280767 -0.952099 0.121150
vn 0.289474 -0.558394 0.777433
vn -0.312775 -0.605515 0.731795
vn -0.785484 0.306338 -0.537747
vn -0.289474 0.558394 -0.777432
vn -0.128611 -0.162411 -0.978306
vn -0.763485 -0.298050 -0.572937
vn -0.289474 0.558394 -0.777432
vn 0.312775 0.605515 -0.731795
vn 0.581602 0.068366 -0.810596
vn -0.128611 -0.162411 -0.978306
vn -0.128611 -0.162411 -0.978306
vn 0.581602 0.068366 -0.810596
vn 0.636977 -0.493874 -0.591903
vn 0.107590 -0.788078 -0.606100
vn -0.763485 -0.298050 -0.572937
vn -0.128611 -0.162411 -0.978306
vn 0.107590 -0.788078 -0.606100
vn -0.461282 -0.793051 -0.397855
s off
g pearl group3 polySurface168
usemtl CylinderFBXASC046036SG
f 79/169/289 97/170/290 99/171/291 94/172/292
f 97/173/293 83/174/294 96/175/295 99/176/296
f 99/171/297 96/177/298 85/178/299 93/179/300
f 94/172/301 99/171/302 93/179/303 81/180/304
f 82/181/305 91/182/306 100/183/307 95/184/308
f 91/182/309 81/185/310 93/186/311 100/183/312
f 100/187/313 93/188/314 85/189/315 90/190/316
f 95/191/317 100/187/318 90/190/319 86/192/320
f 86/192/321 90/190/322 101/193/323 87/194/324
f 90/190/325 85/189/326 96/195/327 101/193/328
f 101/193/329 96/195/330 83/196/331 92/197/332
f 87/194/333 101/193/334 92/197/335 84/198/336
f 84/199/337 88/200/338 102/201/339 87/202/340
f 88/200/341 80/203/342 98/204/343 102/201/344
f 102/205/345 98/206/346 82/181/347 95/184/348
f 87/202/349 102/201/350 95/207/351 86/208/352
f 80/209/353 89/210/354 103/211/355 98/212/356
f 89/210/357 79/213/358 94/214/359 103/211/360
f 103/211/361 94/214/362 81/215/363 91/216/364
f 98/212/365 103/211/366 91/216/367 82/217/368
f 84/218/369 92/219/370 104/220/371 88/221/372
f 92/219/373 83/174/374 97/173/375 104/220/376
f 104/222/377 97/223/378 79/213/379 89/210/380
f 88/224/381 104/222/382 89/210/383 80/209/384
