# This file uses centimeters as units for non-parametric coordinates.

mtllib mesh_earth.mtl
g default
v 5.894800 -4.710770 1.011782
v 2.294985 1.639905 0.306219
v -0.052654 -6.295098 6.864379
v -2.355198 -0.223496 4.882232
v 0.959252 -7.905455 -5.489746
v -1.594727 -1.236022 -4.817645
v -4.988204 -9.458067 0.362849
v -6.244911 -3.099423 -0.241630
v 3.320867 -5.606795 4.464724
v 0.162124 0.850333 2.847449
v -2.414268 -8.562042 -3.090092
v -4.112049 -2.309851 -2.782860
v -3.043349 -7.843017 4.128194
v -4.580877 -1.773989 2.596647
v 3.949946 -6.325820 -2.753562
v 0.630953 0.314472 -2.532057
v -1.926819 -0.818009 0.045280
v 3.167138 0.902056 0.464223
v -1.878551 -1.119831 5.429435
v -6.094140 -4.236700 -0.123702
v -1.048450 -2.214813 -5.088912
v -3.817619 -3.407881 -2.930788
v 0.890620 0.073238 3.271311
v 1.407060 -0.517044 -2.654515
v -4.334061 -2.817600 2.995038
vt 0.722870 0.407310
vt 0.724326 0.407789
vt 0.724326 0.404455
vt 0.722870 0.403776
vt 0.722870 0.407866
vt 0.724326 0.408294
vt 0.724326 0.413041
vt 0.722870 0.413081
vt 0.722870 0.417704
vt 0.724326 0.417224
vt 0.724326 0.420559
vt 0.722870 0.421238
vt 0.722870 0.417147
vt 0.724326 0.416720
vt 0.724326 0.411972
vt 0.722870 0.411932
vt 0.850643 0.494298
vt 0.846129 0.499016
vt 0.842185 0.494833
vt 0.845768 0.490086
vt 0.855519 0.498511
vt 0.850886 0.502350
vt 0.859101 0.493764
vt 0.855157 0.489581
vt 0.850401 0.486246
vt 0.717414 0.402252
vt 0.717414 0.406854
vt 0.717414 0.422762
vt 0.717414 0.418160
vt 0.717414 0.411867
vt 0.717414 0.406177
vt 0.717414 0.413147
vt 0.717414 0.418837
vn 0.410163 0.619680 0.669151
vn 0.012210 0.921692 0.387730
vn -0.392719 0.670301 0.629658
vn -0.231217 0.359708 0.903963
vn -0.784303 -0.041982 0.618956
vn -0.811680 0.462726 0.356456
vn -0.960876 0.250224 -0.118768
vn -0.978049 -0.192475 -0.079829
vn -0.656167 -0.168730 -0.735510
vn -0.721772 0.379010 -0.579134
vn -0.262183 0.530201 -0.806317
vn -0.060572 0.175172 -0.982673
vn 0.540505 0.488889 -0.684721
vn 0.106181 0.830527 -0.546764
vn 0.305974 0.950278 -0.057892
vn 0.686260 0.727355 0.001119
vn -0.474952 0.870636 -0.128118
vn 0.012210 0.921692 0.387730
vn 0.305974 0.950278 -0.057892
vn 0.106181 0.830527 -0.546764
vn -0.811680 0.462726 0.356456
vn -0.392719 0.670301 0.629658
vn 0.012210 0.921692 0.387730
vn -0.474952 0.870636 -0.128118
vn -0.978049 -0.192475 -0.079829
vn -0.960876 0.250224 -0.118768
vn -0.721772 0.379010 -0.579134
vn -0.656167 -0.168730 -0.735510
vn 0.686260 0.727355 0.001119
vn 0.305974 0.950278 -0.057892
vn 0.012210 0.921692 0.387730
vn 0.410163 0.619680 0.669151
vn -0.960876 0.250224 -0.118768
vn -0.811680 0.462726 0.356456
vn -0.474952 0.870636 -0.128118
vn -0.721772 0.379010 -0.579134
vn -0.721772 0.379010 -0.579134
vn -0.474952 0.870636 -0.128118
vn 0.106181 0.830527 -0.546764
vn -0.262183 0.530201 -0.806317
vn -0.060572 0.175172 -0.982673
vn -0.262183 0.530201 -0.806317
vn 0.106181 0.830527 -0.546764
vn 0.540505 0.488889 -0.684721
vn -0.231217 0.359708 0.903963
vn -0.392719 0.670301 0.629658
vn -0.811680 0.462726 0.356456
vn -0.784303 -0.041982 0.618956
vn -0.206564 0.308049 0.928675
vn -0.231217 0.359708 0.903963
vn -0.784303 -0.041982 0.618956
vn -0.767428 -0.092397 0.634443
vn -0.028373 0.122613 -0.992049
vn -0.060572 0.175172 -0.982673
vn 0.540505 0.488889 -0.684721
vn 0.574822 0.445463 -0.686398
vn 0.730045 0.683363 0.007005
vn 0.686260 0.727355 0.001119
vn 0.410163 0.619680 0.669151
vn 0.443749 0.576823 0.685830
vn -0.964982 -0.252700 -0.070379
vn -0.978049 -0.192475 -0.079829
vn -0.656167 -0.168730 -0.735510
vn -0.637127 -0.222342 -0.737993
vn 0.574822 0.445463 -0.686398
vn 0.540505 0.488889 -0.684721
vn 0.686260 0.727355 0.001119
vn 0.730045 0.683363 0.007005
vn -0.637127 -0.222342 -0.737993
vn -0.656167 -0.168730 -0.735510
vn -0.060572 0.175172 -0.982673
vn -0.028373 0.122613 -0.992049
vn -0.767428 -0.092397 0.634443
vn -0.784303 -0.041982 0.618956
vn -0.978049 -0.192475 -0.079829
vn -0.964982 -0.252700 -0.070379
vn 0.443749 0.576823 0.685830
vn 0.410163 0.619680 0.669151
vn -0.231217 0.359708 0.903963
vn -0.206564 0.308049 0.928675
s off
g earth group3
usemtl CylinderFBXASC046036SG
f 23/1/1 10/2/2 4/3/3 19/4/4
f 25/5/5 14/6/6 8/7/7 20/8/8
f 22/9/9 12/10/10 6/11/11 21/12/12
f 24/13/13 16/14/14 2/15/15 18/16/16
f 17/17/17 10/18/18 2/19/19 16/20/20
f 14/21/21 4/22/22 10/18/23 17/17/24
f 20/8/25 8/7/26 12/10/27 22/9/28
f 18/16/29 2/15/30 10/2/31 23/1/32
f 8/23/33 14/21/34 17/17/35 12/24/36
f 12/24/37 17/17/38 16/20/39 6/25/40
f 21/12/41 6/11/42 16/14/43 24/13/44
f 19/4/45 4/3/46 14/6/47 25/5/48
f 3/26/49 19/4/50 25/5/51 13/27/52
f 5/28/53 21/12/54 24/13/55 15/29/56
f 1/30/57 18/16/58 23/1/59 9/31/60
f 7/32/61 20/8/62 22/9/63 11/33/64
f 15/29/65 24/13/66 18/16/67 1/30/68
f 11/33/69 22/9/70 21/12/71 5/28/72
f 13/27/73 25/5/74 20/8/75 7/32/76
f 9/31/77 23/1/78 19/4/79 3/26/80
