# This file uses centimeters as units for non-parametric coordinates.

mtllib gem.mtl
g default
v -3.952081 2.443841 0.857690
v -4.349055 2.610098 0.833390
v -4.708149 2.805529 0.971962
v -4.984036 2.979454 1.261715
v -5.110177 3.160369 1.633834
v -5.054031 3.350619 2.018239
v -4.837482 3.491354 2.369836
v -4.518036 3.506171 2.659801
v -4.134984 3.413744 2.834583
v -3.738010 3.247488 2.858884
v -3.396182 3.013369 2.737695
v -3.170882 2.726103 2.498869
v -3.071872 2.484398 2.154065
v -3.100887 2.354937 1.742345
v -3.266850 2.327545 1.339820
v -3.569029 2.351415 1.032474
v -3.716393 2.878505 0.499035
v -3.281473 2.773563 0.697486
v -2.938265 2.746711 1.046337
v -2.749570 2.778394 1.503106
v -2.716579 2.925488 1.970529
v -2.829042 3.199818 2.362070
v -3.085110 3.525401 2.633495
v -3.473335 3.790972 2.771207
v -3.924063 3.979740 2.743615
v -4.358983 4.084683 2.545165
v -4.721573 4.068109 2.215826
v -4.967185 3.908899 1.816358
v -5.030888 3.692992 1.379855
v -4.887713 3.487475 0.957394
v -4.574728 3.289418 0.628668
v -4.167120 3.067274 0.471445
v -3.839725 3.385438 1.640954
v -4.274338 2.411657 2.078500
v -4.120967 3.156428 0.476427
v -4.402524 2.359982 1.357509
v -4.515170 3.369639 0.628844
v -4.633881 2.485428 1.446892
v -4.818514 3.558435 0.947396
v -4.811889 2.596529 1.633830
v -4.957168 3.756020 1.355753
v -4.893170 2.712848 1.873474
v -4.895258 3.965397 1.776881
v -4.856952 2.835489 2.120888
v -4.656976 4.121606 2.161532
v -4.717146 2.926969 2.346857
v -4.306245 4.138921 2.478981
v -4.511316 2.936883 2.533370
v -3.886251 4.037580 2.670620
v -4.264704 2.877378 2.645897
v -3.450992 3.855290 2.697265
v -4.009128 2.770340 2.661542
v -3.076674 3.597524 2.564868
v -3.789223 2.619238 2.583688
v -2.830494 3.280650 2.303865
v -3.644563 2.433419 2.430323
v -2.722283 3.014856 1.926156
v -3.580889 2.277651 2.208404
v -2.753750 2.873688 1.474379
v -3.599500 2.194459 1.943265
v -2.934868 2.845557 1.032179
v -3.705958 2.177697 1.683723
v -3.265714 2.872797 0.694711
v -3.900337 2.193440 1.485682
v -3.685708 2.974138 0.503071
v -4.146949 2.252945 1.373155
vt 0.646800 0.267811
vt 0.642450 0.269524
vt 0.641443 0.264716
vt 0.646152 0.264716
vt 0.648645 0.270435
vt 0.645316 0.273599
vt 0.651407 0.272189
vt 0.649605 0.276323
vt 0.654664 0.272804
vt 0.654664 0.277279
vt 0.657922 0.272189
vt 0.659724 0.276323
vt 0.660683 0.270435
vt 0.664013 0.273599
vt 0.662528 0.267811
vt 0.666879 0.269524
vt 0.663176 0.264716
vt 0.667885 0.264716
vt 0.662528 0.261620
vt 0.666879 0.259908
vt 0.660683 0.258996
vt 0.664013 0.255832
vt 0.657922 0.257243
vt 0.659724 0.253108
vt 0.654664 0.256627
vt 0.654664 0.252152
vt 0.651407 0.257243
vt 0.649605 0.253108
vt 0.648645 0.258996
vt 0.645316 0.255832
vt 0.646800 0.261620
vt 0.642450 0.259908
vt 0.753205 0.661777
vt 0.748636 0.661777
vt 0.748636 0.656318
vt 0.753205 0.656969
vt 0.077902 0.339012
vt 0.082472 0.337440
vt 0.082273 0.340532
vt 0.077726 0.341735
vt 0.081691 0.345160
vt 0.077208 0.345811
vt 0.081377 0.350619
vt 0.076931 0.350619
vt 0.081691 0.356078
vt 0.077208 0.355427
vt 0.082273 0.360706
vt 0.077726 0.359503
vt 0.082472 0.363798
vt 0.077902 0.362226
vt 0.760329 0.656969
vt 0.764899 0.656318
vt 0.764899 0.661777
vt 0.760329 0.661777
vt 0.764899 0.667236
vt 0.760329 0.666585
vt 0.069824 0.362294
vt 0.065254 0.363866
vt 0.065452 0.360773
vt 0.070000 0.359570
vt 0.066035 0.356146
vt 0.070518 0.355495
vt 0.066349 0.350687
vt 0.070795 0.350687
vt 0.066035 0.345228
vt 0.070518 0.345879
vt 0.065452 0.340600
vt 0.070000 0.341803
vt 0.065254 0.337508
vt 0.069824 0.339079
vt 0.753205 0.666585
vt 0.748636 0.667236
vt 0.654664 0.264716
vt 0.941252 0.194235
vt 0.940148 0.188964
vt 0.954644 0.188964
vt 0.960192 0.201691
vt 0.954644 0.202739
vt 0.954644 0.175189
vt 0.960192 0.176237
vt 0.941252 0.183692
vt 0.949097 0.201691
vt 0.964894 0.179223
vt 0.969140 0.188964
vt 0.968037 0.194235
vt 0.944394 0.179223
vt 0.944394 0.198704
vt 0.968037 0.183692
vt 0.964894 0.198704
vt 0.949097 0.176237
vt 0.968513 0.194423
vt 0.969655 0.188964
vt 0.965259 0.199051
vt 0.960389 0.202143
vt 0.954644 0.203229
vt 0.948900 0.202143
vt 0.944030 0.199051
vt 0.940776 0.194423
vt 0.939633 0.188964
vt 0.940776 0.183505
vt 0.944030 0.178877
vt 0.948900 0.175785
vt 0.954644 0.174699
vt 0.960389 0.175785
vt 0.965259 0.178877
vt 0.968513 0.183505
vn -0.447588 -0.869988 -0.206845
vn -0.403059 -0.631178 -0.662690
vn -0.089713 -0.763091 -0.640035
vn -0.264909 -0.945298 -0.190356
vn -0.578113 -0.798561 -0.167587
vn -0.667554 -0.474583 -0.573710
vn -0.403059 -0.631178 -0.662690
vn -0.447588 -0.869988 -0.206845
vn -0.699041 -0.714015 -0.039048
vn -0.879486 -0.305585 -0.364859
vn -0.667554 -0.474583 -0.573710
vn -0.578113 -0.798561 -0.167587
vn -0.784152 -0.582740 0.213353
vn -0.992397 -0.118359 -0.033748
vn -0.879486 -0.305585 -0.364859
vn -0.699041 -0.714015 -0.039048
vn -0.747133 -0.458993 0.480747
vn -0.943683 0.034841 0.329010
vn -0.992397 -0.118359 -0.033748
vn -0.784152 -0.582740 0.213353
vn -0.653045 -0.401210 0.642310
vn -0.777871 0.110411 0.618648
vn -0.943683 0.034841 0.329010
vn -0.747133 -0.458993 0.480747
vn -0.535315 -0.404791 0.741338
vn -0.541561 0.103273 0.834294
vn -0.777871 0.110411 0.618648
vn -0.653045 -0.401210 0.642310
vn -0.358169 -0.450755 0.817639
vn -0.238739 0.027169 0.970704
vn -0.541561 0.103273 0.834294
vn -0.535315 -0.404791 0.741338
vn -0.174735 -0.524372 0.833368
vn 0.076035 -0.101543 0.991921
vn -0.238739 0.027169 0.970704
vn -0.358169 -0.450755 0.817639
vn -0.047056 -0.602177 0.796975
vn 0.339615 -0.260186 0.903861
vn 0.076035 -0.101543 0.991921
vn -0.174735 -0.524372 0.833368
vn 0.056555 -0.725523 0.685870
vn 0.539168 -0.456923 0.707474
vn 0.339615 -0.260186 0.903861
vn -0.047056 -0.602177 0.796975
vn 0.128845 -0.885521 0.446375
vn 0.644469 -0.661200 0.384024
vn 0.539168 -0.456923 0.707474
vn 0.056555 -0.725523 0.685870
vn 0.104646 -0.980545 0.166075
vn 0.603365 -0.797349 0.013605
vn 0.644469 -0.661200 0.384024
vn 0.128845 -0.885521 0.446375
vn 0.027876 -0.999528 -0.012922
vn 0.449934 -0.845180 -0.288497
vn 0.603365 -0.797349 0.013605
vn 0.104646 -0.980545 0.166075
vn -0.087008 -0.989569 -0.114815
vn 0.214537 -0.835993 -0.505063
vn 0.449934 -0.845180 -0.288497
vn 0.027876 -0.999528 -0.012922
vn -0.264909 -0.945298 -0.190356
vn -0.089713 -0.763091 -0.640035
vn 0.214537 -0.835993 -0.505063
vn -0.087008 -0.989569 -0.114815
vn -0.089713 -0.763091 -0.640035
vn 0.112494 -0.370394 -0.922037
vn 0.461061 -0.450687 -0.764398
vn 0.214537 -0.835993 -0.505063
vn 0.214537 -0.835993 -0.505063
vn 0.461061 -0.450687 -0.764398
vn 0.745857 -0.450743 -0.490436
vn 0.449934 -0.845180 -0.288497
vn 0.449934 -0.845180 -0.288497
vn 0.745857 -0.450743 -0.490436
vn 0.911395 -0.384755 -0.146021
vn 0.603365 -0.797349 0.013605
vn 0.603365 -0.797349 0.013605
vn 0.911395 -0.384755 -0.146021
vn 0.945634 -0.248745 0.209530
vn 0.644469 -0.661200 0.384024
vn 0.644469 -0.661200 0.384024
vn 0.945634 -0.248745 0.209530
vn 0.849316 -0.055563 0.524952
vn 0.539168 -0.456923 0.707474
vn 0.539168 -0.456923 0.707474
vn 0.849316 -0.055563 0.524952
vn 0.630236 0.162370 0.759235
vn 0.339615 -0.260186 0.903861
vn 0.339615 -0.260186 0.903861
vn 0.630236 0.162370 0.759235
vn 0.308769 0.356892 0.881641
vn 0.076035 -0.101543 0.991921
vn 0.076035 -0.101543 0.991921
vn 0.308769 0.356892 0.881641
vn -0.052537 0.504731 0.861677
vn -0.238739 0.027169 0.970704
vn -0.238739 0.027169 0.970704
vn -0.052537 0.504731 0.861677
vn -0.398272 0.591371 0.701185
vn -0.541561 0.103273 0.834294
vn -0.541561 0.103273 0.834294
vn -0.398272 0.591371 0.701185
vn -0.680549 0.597071 0.424688
vn -0.777871 0.110411 0.618648
vn -0.777871 0.110411 0.618648
vn -0.680549 0.597071 0.424688
vn -0.855570 0.509836 0.089819
vn -0.943683 0.034841 0.329010
vn -0.943683 0.034841 0.329010
vn -0.855570 0.509836 0.089819
vn -0.895203 0.361739 -0.260301
vn -0.992397 -0.118359 -0.033748
vn -0.992397 -0.118359 -0.033748
vn -0.895203 0.361739 -0.260301
vn -0.793491 0.180643 -0.581154
vn -0.879486 -0.305585 -0.364859
vn -0.879486 -0.305585 -0.364859
vn -0.793491 0.180643 -0.581154
vn -0.564928 -0.016042 -0.824984
vn -0.667554 -0.474583 -0.573710
vn -0.667554 -0.474583 -0.573710
vn -0.564928 -0.016042 -0.824984
vn -0.245979 -0.216208 -0.944854
vn -0.403059 -0.631178 -0.662690
vn -0.403059 -0.631178 -0.662690
vn -0.245979 -0.216208 -0.944854
vn 0.112494 -0.370394 -0.922037
vn -0.089713 -0.763091 -0.640035
vn -0.264909 -0.945298 -0.190356
vn -0.087008 -0.989569 -0.114815
vn -0.377058 -0.844825 0.379602
vn -0.699041 -0.714015 -0.039048
vn -0.578113 -0.798561 -0.167587
vn -0.377058 -0.844825 0.379602
vn 0.128845 -0.885521 0.446375
vn 0.056555 -0.725523 0.685870
vn -0.377058 -0.844825 0.379602
vn 0.007123 0.987757 0.155836
vn 0.240088 0.932256 0.270660
vn 0.377058 0.844825 -0.379602
vn -0.358169 -0.450755 0.817639
vn -0.535315 -0.404791 0.741338
vn -0.377058 -0.844825 0.379602
vn -0.289663 0.756309 -0.586593
vn -0.335550 0.833073 -0.439768
vn 0.377058 0.844825 -0.379602
vn 0.896775 0.424392 -0.125245
vn 0.885016 0.366745 -0.286783
vn 0.377058 0.844825 -0.379602
vn -0.784152 -0.582740 0.213353
vn -0.699041 -0.714015 -0.039048
vn -0.377058 -0.844825 0.379602
vn 0.104646 -0.980545 0.166075
vn 0.128845 -0.885521 0.446375
vn -0.377058 -0.844825 0.379602
vn 0.240088 0.932256 0.270660
vn 0.484822 0.829336 0.277758
vn 0.377058 0.844825 -0.379602
vn -0.174735 -0.524372 0.833368
vn -0.358169 -0.450755 0.817639
vn -0.377058 -0.844825 0.379602
vn -0.335550 0.833073 -0.439768
vn -0.317618 0.904550 -0.284443
vn 0.377058 0.844825 -0.379602
vn 0.885016 0.366745 -0.286783
vn 0.784794 0.329952 -0.524624
vn 0.377058 0.844825 -0.379602
vn -0.747133 -0.458993 0.480747
vn -0.784152 -0.582740 0.213353
vn -0.377058 -0.844825 0.379602
vn 0.027876 -0.999528 -0.012922
vn 0.104646 -0.980545 0.166075
vn -0.377058 -0.844825 0.379602
vn 0.344636 0.377861 -0.859330
vn 0.101889 0.485233 -0.868428
vn 0.377058 0.844825 -0.379602
vn 0.484822 0.829336 0.277758
vn 0.720309 0.671900 0.172349
vn 0.377058 0.844825 -0.379602
vn -0.447588 -0.869988 -0.206845
vn -0.264909 -0.945298 -0.190356
vn -0.377058 -0.844825 0.379602
vn -0.047056 -0.602177 0.796975
vn -0.174735 -0.524372 0.833368
vn -0.377058 -0.844825 0.379602
vn -0.317618 0.904550 -0.284443
vn -0.201250 0.977521 -0.062858
vn 0.377058 0.844825 -0.379602
vn 0.784794 0.329952 -0.524624
vn 0.579588 0.326811 -0.746507
vn 0.377058 0.844825 -0.379602
vn -0.653045 -0.401210 0.642310
vn -0.747133 -0.458993 0.480747
vn -0.377058 -0.844825 0.379602
vn -0.087008 -0.989569 -0.114815
vn 0.027876 -0.999528 -0.012922
vn -0.377058 -0.844825 0.379602
vn 0.101889 0.485233 -0.868428
vn -0.136765 0.635572 -0.759831
vn 0.377058 0.844825 -0.379602
vn 0.720309 0.671900 0.172349
vn 0.857061 0.514986 0.015367
vn 0.377058 0.844825 -0.379602
vn -0.578113 -0.798561 -0.167587
vn -0.447588 -0.869988 -0.206845
vn -0.377058 -0.844825 0.379602
vn 0.056555 -0.725523 0.685870
vn -0.047056 -0.602177 0.796975
vn -0.377058 -0.844825 0.379602
vn -0.201250 0.977521 -0.062858
vn 0.007123 0.987757 0.155836
vn 0.377058 0.844825 -0.379602
vn -0.535315 -0.404791 0.741338
vn -0.653045 -0.401210 0.642310
vn -0.377058 -0.844825 0.379602
vn 0.579588 0.326811 -0.746507
vn 0.344636 0.377861 -0.859330
vn 0.377058 0.844825 -0.379602
vn -0.136765 0.635572 -0.759831
vn -0.289663 0.756309 -0.586593
vn 0.377058 0.844825 -0.379602
vn 0.857061 0.514986 0.015367
vn 0.896775 0.424392 -0.125245
vn 0.377058 0.844825 -0.379602
vn -0.245979 -0.216208 -0.944854
vn 0.101889 0.485233 -0.868428
vn 0.344636 0.377861 -0.859330
vn 0.112494 -0.370394 -0.922037
vn -0.564928 -0.016042 -0.824984
vn -0.136765 0.635572 -0.759831
vn 0.101889 0.485233 -0.868428
vn -0.245979 -0.216208 -0.944854
vn -0.793491 0.180643 -0.581154
vn -0.289663 0.756309 -0.586593
vn -0.136765 0.635572 -0.759831
vn -0.564928 -0.016042 -0.824984
vn -0.895203 0.361739 -0.260301
vn -0.335550 0.833073 -0.439768
vn -0.289663 0.756309 -0.586593
vn -0.793491 0.180643 -0.581154
vn -0.855570 0.509836 0.089819
vn -0.317618 0.904550 -0.284443
vn -0.335550 0.833073 -0.439768
vn -0.895203 0.361739 -0.260301
vn -0.680549 0.597071 0.424688
vn -0.201250 0.977521 -0.062858
vn -0.317618 0.904550 -0.284443
vn -0.855570 0.509836 0.089819
vn -0.398272 0.591371 0.701185
vn 0.007123 0.987757 0.155836
vn -0.201250 0.977521 -0.062858
vn -0.680549 0.597071 0.424688
vn -0.052537 0.504731 0.861677
vn 0.240088 0.932256 0.270660
vn 0.007123 0.987757 0.155836
vn -0.398272 0.591371 0.701185
vn 0.308769 0.356892 0.881641
vn 0.484822 0.829336 0.277758
vn 0.240088 0.932256 0.270660
vn -0.052537 0.504731 0.861677
vn 0.630236 0.162370 0.759235
vn 0.720309 0.671900 0.172349
vn 0.484822 0.829336 0.277758
vn 0.308769 0.356892 0.881641
vn 0.849316 -0.055563 0.524952
vn 0.857061 0.514986 0.015367
vn 0.720309 0.671900 0.172349
vn 0.630236 0.162370 0.759235
vn 0.945634 -0.248745 0.209530
vn 0.896775 0.424392 -0.125245
vn 0.857061 0.514986 0.015367
vn 0.849316 -0.055563 0.524952
vn 0.911395 -0.384755 -0.146021
vn 0.885016 0.366745 -0.286783
vn 0.896775 0.424392 -0.125245
vn 0.945634 -0.248745 0.209530
vn 0.745857 -0.450743 -0.490436
vn 0.784794 0.329952 -0.524624
vn 0.885016 0.366745 -0.286783
vn 0.911395 -0.384755 -0.146021
vn 0.461061 -0.450687 -0.764398
vn 0.579588 0.326811 -0.746507
vn 0.784794 0.329952 -0.524624
vn 0.745857 -0.450743 -0.490436
vn 0.112494 -0.370394 -0.922037
vn 0.344636 0.377861 -0.859330
vn 0.579588 0.326811 -0.746507
vn 0.461061 -0.450687 -0.764398
s off
g polySurface163 group3
usemtl CylinderFBXASC046036SG
f 36/1/1 2/2/2 1/3/3 66/4/4
f 38/5/5 3/6/6 2/2/7 36/1/8
f 40/7/9 4/8/10 3/6/11 38/5/12
f 42/9/13 5/10/14 4/8/15 40/7/16
f 44/11/17 6/12/18 5/10/19 42/9/20
f 46/13/21 7/14/22 6/12/23 44/11/24
f 48/15/25 8/16/26 7/14/27 46/13/28
f 50/17/29 9/18/30 8/16/31 48/15/32
f 52/19/33 10/20/34 9/18/35 50/17/36
f 54/21/37 11/22/38 10/20/39 52/19/40
f 56/23/41 12/24/42 11/22/43 54/21/44
f 58/25/45 13/26/46 12/24/47 56/23/48
f 60/27/49 14/28/50 13/26/51 58/25/52
f 62/29/53 15/30/54 14/28/55 60/27/56
f 64/31/57 16/32/58 15/30/59 62/29/60
f 66/4/61 1/3/62 16/32/63 64/31/64
f 1/33/65 17/34/66 18/35/67 16/36/68
f 16/37/69 18/38/70 19/39/71 15/40/72
f 15/40/73 19/39/74 20/41/75 14/42/76
f 14/42/77 20/41/78 21/43/79 13/44/80
f 13/44/81 21/43/82 22/45/83 12/46/84
f 12/46/85 22/45/86 23/47/87 11/48/88
f 11/48/89 23/47/90 24/49/91 10/50/92
f 10/51/93 24/52/94 25/53/95 9/54/96
f 9/54/97 25/53/98 26/55/99 8/56/100
f 8/57/101 26/58/102 27/59/103 7/60/104
f 7/60/105 27/59/106 28/61/107 6/62/108
f 6/62/109 28/61/110 29/63/111 5/64/112
f 5/64/113 29/63/114 30/65/115 4/66/116
f 4/66/117 30/65/118 31/67/119 3/68/120
f 3/68/121 31/67/122 32/69/123 2/70/124
f 2/71/125 32/72/126 17/34/127 1/33/128
f 66/4/129 64/31/130 34/73/131
f 40/7/132 38/5/133 34/73/134
f 58/25/135 56/23/136 34/73/137
f 47/74/138 49/75/139 33/76/140
f 50/17/141 48/15/142 34/73/143
f 39/77/144 41/78/145 33/76/146
f 57/79/147 59/80/148 33/76/149
f 42/9/150 40/7/151 34/73/152
f 60/27/153 58/25/154 34/73/155
f 49/75/156 51/81/157 33/76/158
f 52/19/159 50/17/160 34/73/161
f 41/78/162 43/82/163 33/76/164
f 59/80/165 61/83/166 33/76/167
f 44/11/168 42/9/169 34/73/170
f 62/29/171 60/27/172 34/73/173
f 65/84/174 35/85/175 33/76/176
f 51/81/177 53/86/178 33/76/179
f 36/1/180 66/4/181 34/73/182
f 54/21/183 52/19/184 34/73/185
f 43/82/186 45/87/187 33/76/188
f 61/83/189 63/88/190 33/76/191
f 46/13/192 44/11/193 34/73/194
f 64/31/195 62/29/196 34/73/197
f 35/85/198 37/89/199 33/76/200
f 53/86/201 55/90/202 33/76/203
f 38/5/204 36/1/205 34/73/206
f 56/23/207 54/21/208 34/73/209
f 45/87/210 47/74/211 33/76/212
f 48/15/213 46/13/214 34/73/215
f 63/88/216 65/84/217 33/76/218
f 37/89/219 39/77/220 33/76/221
f 55/90/222 57/79/223 33/76/224
f 32/91/225 35/85/226 65/84/227 17/92/228
f 31/93/229 37/89/230 35/85/231 32/91/232
f 30/94/233 39/77/234 37/89/235 31/93/236
f 29/95/237 41/78/238 39/77/239 30/94/240
f 28/96/241 43/82/242 41/78/243 29/95/244
f 27/97/245 45/87/246 43/82/247 28/96/248
f 26/98/249 47/74/250 45/87/251 27/97/252
f 25/99/253 49/75/254 47/74/255 26/98/256
f 24/100/257 51/81/258 49/75/259 25/99/260
f 23/101/261 53/86/262 51/81/263 24/100/264
f 22/102/265 55/90/266 53/86/267 23/101/268
f 21/103/269 57/79/270 55/90/271 22/102/272
f 20/104/273 59/80/274 57/79/275 21/103/276
f 19/105/277 61/83/278 59/80/279 20/104/280
f 18/106/281 63/88/282 61/83/283 19/105/284
f 17/92/285 65/84/286 63/88/287 18/106/288
